<svg width="49" height="49" viewBox="0 0 49 49" fill="none" xmlns="http://www.w3.org/2000/svg">
<path fill-rule="evenodd" clip-rule="evenodd" d="M24.5 49C38.031 49 49 38.031 49 24.5C49 10.969 38.031 0 24.5 0C10.969 0 0 10.969 0 24.5C0 38.031 10.969 49 24.5 49Z" fill="#54AB9D"/>
<circle cx="18" cy="19" r="3" fill="white"/>
<circle cx="31" cy="19" r="3" fill="white"/>
<path fill-rule="evenodd" clip-rule="evenodd" d="M34.79 27H14V30C14.7278 35.0884 19.104 39 24.3937 39C29.6834 39 34.0595 35.0884 34.7873 30H34.79V27ZM30.7197 30H18.0676C18.7448 32.8667 21.3201 35 24.3937 35C27.4672 35 30.0426 32.8667 30.7197 30Z" fill="white"/>
</svg>
