<svg width="49" height="49" viewBox="0 0 49 49" fill="none" xmlns="http://www.w3.org/2000/svg">
<path fill-rule="evenodd" clip-rule="evenodd" d="M24.5 49C38.031 49 49 38.031 49 24.5C49 10.969 38.031 0 24.5 0C10.969 0 0 10.969 0 24.5C0 38.031 10.969 49 24.5 49Z" fill="#D83634"/>
<circle cx="18" cy="21" r="3" fill="white"/>
<circle cx="31" cy="21" r="3" fill="white"/>
<path fill-rule="evenodd" clip-rule="evenodd" d="M31.1346 35.8257C29.6142 33.5208 27.0018 32 24.0341 32C21.0664 32 18.4539 33.5208 16.9336 35.8257L13 34.6211C15.1036 30.6812 19.2557 28 24.0341 28C28.8124 28 32.9646 30.6812 35.0682 34.6211L31.1346 35.8257Z" fill="white"/>
</svg>
