<svg width="49" height="49" viewBox="0 0 49 49" fill="none" xmlns="http://www.w3.org/2000/svg">
<path fill-rule="evenodd" clip-rule="evenodd" d="M24.5 49C38.031 49 49 38.031 49 24.5C49 10.969 38.031 0 24.5 0C10.969 0 0 10.969 0 24.5C0 38.031 10.969 49 24.5 49Z" fill="#E5A23D"/>
<circle cx="18" cy="21" r="3" fill="white"/>
<circle cx="31" cy="21" r="3" fill="white"/>
<path fill-rule="evenodd" clip-rule="evenodd" d="M31.1346 30C29.6142 32.3048 27.0018 33.8257 24.0341 33.8257C21.0664 33.8257 18.4539 32.3048 16.9336 30L13 31.2045C15.1036 35.1445 19.2557 37.8257 24.0341 37.8257C28.8124 37.8257 32.9646 35.1445 35.0682 31.2045L31.1346 30Z" fill="white"/>
</svg>
